<svg width="38" height="37" viewBox="0 0 38 37" fill="none" xmlns="http://www.w3.org/2000/svg">
    <path
        d="M34.9726 27.5879C35.173 27.2352 35.1671 26.8215 35.0003 26.4695L35.0116 26.4632L32.3258 22.0986L36.6791 19.6706L36.6741 19.6619C36.8319 19.5495 36.9586 19.4013 37.0442 19.2293C37.1297 19.0573 37.1715 18.8663 37.1663 18.6719C37.1603 18.4772 37.1074 18.2846 37.0117 18.1099C36.9161 17.9351 36.7804 17.7831 36.6158 17.6662L36.6217 17.6558L32.1119 15.0932L34.5438 10.8135L34.5346 10.8082C34.6102 10.6315 34.6412 10.4382 34.6251 10.2438C34.6091 10.0495 34.5464 9.85959 34.4422 9.68957C34.3374 9.51949 34.1937 9.37432 34.0231 9.2659C33.8525 9.15748 33.6596 9.08888 33.4604 9.06571L33.4601 9.05345L28.2495 8.97897L28.1105 4.10473L28.1 4.10459C28.0731 3.91094 28.0001 3.72425 27.8868 3.55964C27.7734 3.39503 27.6231 3.25713 27.4478 3.1571C27.0771 2.94648 26.6523 2.93447 26.2984 3.08244L26.2916 3.07115L21.9626 5.48559L19.3155 1.18354L19.3066 1.1885C19.1845 1.02975 19.027 0.899711 18.8468 0.808939C18.6665 0.718166 18.4687 0.669209 18.2693 0.66604C18.0696 0.663439 17.8741 0.706841 17.6987 0.792714C17.5233 0.878587 17.373 1.00451 17.2599 1.16024L17.2486 1.15381L14.831 5.40839L10.3865 2.88285L10.3817 2.89122C10.1971 2.80995 9.9973 2.77144 9.79846 2.77883C9.59963 2.78622 9.40737 2.8393 9.23726 2.93376C9.0674 3.02892 8.92468 3.16278 8.82067 3.32448C8.71665 3.48617 8.65429 3.67114 8.63863 3.86438L8.62583 3.86448L8.76476 8.73499L3.60188 8.66129L3.60218 8.67148C3.40453 8.68949 3.21599 8.75285 3.05183 8.85643C2.88766 8.96001 2.75249 9.1009 2.65726 9.26769C2.45681 9.62045 2.46255 10.0345 2.6295 10.3861L2.6182 10.3924L5.30401 14.757L0.950705 17.185L0.955978 17.1933C0.798202 17.3057 0.671415 17.4539 0.585896 17.6259C0.500377 17.7979 0.458533 17.9889 0.463762 18.1833C0.469714 18.378 0.522668 18.5706 0.618316 18.7453C0.713965 18.9201 0.849614 19.0721 1.01425 19.189L1.00813 19.1998L5.51752 21.7622L3.08585 26.0415L3.09506 26.0467C2.94877 26.3939 2.96712 26.8072 3.18741 27.1654C3.29237 27.3354 3.43601 27.4805 3.60663 27.5889C3.77725 27.6973 3.97004 27.766 4.16928 27.7893L4.16951 27.8015L9.38015 27.876L9.51917 32.7502L9.52962 32.7504C9.55651 32.944 9.62958 33.1307 9.74289 33.2953C9.85621 33.4599 10.0066 33.5978 10.1819 33.6979C10.5525 33.9085 10.9773 33.9205 11.331 33.7729L11.3377 33.7836L15.6666 31.3691L18.3142 35.6714L18.3231 35.6665C18.4451 35.8252 18.6027 35.9553 18.7829 36.046C18.9631 36.1368 19.1609 36.1858 19.3603 36.1889C19.56 36.1915 19.7555 36.1481 19.9309 36.0623C20.1063 35.9764 20.2567 35.8505 20.3697 35.6947L20.3811 35.7012L22.7985 31.447L27.2434 33.9728L27.2481 33.9644C27.4327 34.0457 27.6325 34.0842 27.8314 34.0768C28.0302 34.0694 28.2225 34.0163 28.3926 33.9219C28.5625 33.8266 28.7052 33.6927 28.8092 33.5309C28.9133 33.3691 28.9757 33.1841 28.9914 32.9908L29.004 32.9911L28.8651 28.1206L34.028 28.1943L34.0276 28.1841C34.2253 28.1662 34.4139 28.1029 34.5781 27.9993C34.7422 27.8957 34.8774 27.7548 34.9726 27.5879ZM13.6107 21.4577L10.4723 17.3806L10.5877 21.4141L9.23787 21.3948L9.06082 15.2108L10.4488 15.2301L13.4974 19.1571L13.3863 15.2721L14.7365 15.2917L14.9127 21.4752L13.6107 21.4577ZM16.1674 21.4943L15.991 15.31L20.4781 15.3747L20.5111 16.5334L17.3738 16.4881L17.4107 17.7862L20.4811 17.8304L20.5145 18.9884L17.4437 18.945L17.484 20.3541L20.6213 20.3995L20.6543 21.5582L16.1674 21.4943ZM26.5577 21.643L25.3242 17.3807L24.3427 21.6108L22.9076 21.5905L20.915 15.3809L22.4264 15.4024L23.6668 19.8869L24.7462 15.4356L25.8013 15.4509L27.1267 19.9368L28.1113 15.4838L29.6227 15.5053L27.993 21.664L26.5577 21.643Z"
        fill="#00AB55" />
</svg>