<svg width="36" height="36" viewBox="0 0 36 36" fill="none" xmlns="http://www.w3.org/2000/svg">
    <circle cx="18" cy="18" r="18" fill="#FF6B00" />
    <path
        d="M7.60666 21H6.31891L5.32016 18.6327H4.07491V21H2.83816V14.8545H5.43066C5.92083 14.8545 6.32174 14.9324 6.63341 15.0882C6.94508 15.2441 7.17458 15.4608 7.32191 15.7385C7.46924 16.0133 7.54291 16.3307 7.54291 16.6905C7.54291 17.0135 7.49191 17.2869 7.38991 17.5107C7.29074 17.7317 7.15899 17.9159 6.99466 18.0632C6.83316 18.2106 6.65608 18.331 6.46341 18.4245L7.60666 21ZM5.20966 17.6765C5.54116 17.6765 5.80324 17.5872 5.99591 17.4087C6.19141 17.2302 6.28916 17.0007 6.28916 16.7202C6.28916 16.4369 6.19566 16.2131 6.00866 16.0487C5.82166 15.8844 5.58508 15.8022 5.29891 15.8022H4.07491V17.6765H5.20966ZM8.75662 21V14.8545H12.9769L12.9726 15.9H10.0019V17.3917H12.5816V18.416H9.99337V19.9417L13.0194 19.946V21H8.75662ZM18.2352 14.8545H19.4762V21H18.3584L15.4387 16.7712V21H14.2019V14.8545H15.4302L18.2352 18.9217V14.8545ZM20.8509 21V14.8545H25.0711L25.0669 15.9H22.0961V17.3917H24.6759V18.416H22.0876V19.9417L25.1136 19.946V21H20.8509ZM33.6867 14.8545L31.872 21H30.8817L29.7257 16.9837L28.5612 21H27.588L25.7775 14.8545H26.993L28.1362 18.9132L29.2795 14.8545H30.1762L31.3322 18.9132L32.4755 14.8545H33.6867Z"
        fill="white" />
</svg>