<svg width="36" height="37" viewBox="0 0 36 37" fill="none" xmlns="http://www.w3.org/2000/svg">
    <circle cx="18" cy="18.3047" r="18" fill="#DB5E05" />
    <path
        d="M17 24.2047C17 24.0047 17 23.8047 17.1 23.6047C17.2 23.4047 17.3 23.3047 17.4 23.1047C17.5 22.9047 17.7 22.9047 17.9 22.8047C18.1 22.7047 18.3 22.7047 18.5 22.7047C18.7 22.7047 19 22.7047 19.2 22.8047C19.4 22.9047 19.6 23.0047 19.7 23.1047C19.8 23.2047 19.9 23.4047 20 23.6047C20.1 23.8047 20.1 24.0047 20.1 24.2047C20.1 24.4047 20.1 24.6047 20 24.8047C19.9 25.0047 19.8 25.1047 19.7 25.3047C19.6 25.5047 19.4 25.5047 19.2 25.6047C19 25.7047 18.8 25.7047 18.5 25.7047C18.2 25.7047 18 25.7047 17.9 25.6047C17.8 25.5047 17.5 25.4047 17.4 25.3047C17.3 25.2047 17.2 25.0047 17.1 24.8047C17 24.6047 17 24.4047 17 24.2047ZM19.8297 20.1353C19.8131 20.6754 19.3705 21.1047 18.8301 21.1047H18.46C17.9236 21.1047 17.4827 20.6814 17.4608 20.1455L17.1425 12.3455C17.1193 11.7777 17.5734 11.3047 18.1416 11.3047H19.0689C19.6332 11.3047 20.0857 11.7713 20.0685 12.3353L19.8297 20.1353Z"
        fill="white" />
</svg>