<svg width="24" height="24" viewBox="0 0 24 24" fill="none" xmlns="http://www.w3.org/2000/svg">
<path d="M15.743 11.9873H21.503C21.9202 11.9873 22.3203 12.1529 22.6154 12.4477C22.9105 12.7426 23.0765 13.1425 23.0769 13.5597V18.1529H14.1692V13.5597C14.1693 13.1424 14.3352 12.7422 14.6303 12.4471C14.9255 12.1521 15.3257 11.9863 15.743 11.9863V11.9873Z" stroke="#868686" stroke-width="0.7" stroke-miterlimit="10" stroke-linecap="round" stroke-linejoin="round"/>
<path d="M18.6231 10.0006C19.7699 10.0006 20.6995 9.07092 20.6995 7.92412C20.6995 6.77732 19.7699 5.84766 18.6231 5.84766C17.4763 5.84766 16.5466 6.77732 16.5466 7.92412C16.5466 9.07092 17.4763 10.0006 18.6231 10.0006Z" stroke="#868686" stroke-width="1.5" stroke-miterlimit="10" stroke-linecap="round" stroke-linejoin="round"/>
<path d="M2.49694 11.9868H8.25694C8.67419 11.9868 9.07437 12.1525 9.36949 12.4474C9.66462 12.7424 9.83054 13.1425 9.83079 13.5597V18.1529H0.923096V13.5597C0.923218 13.1424 1.08909 12.7422 1.38423 12.4471C1.67937 12.1521 2.07961 11.9863 2.49694 11.9863V11.9868Z" stroke="#868686" stroke-width="0.7" stroke-miterlimit="10" stroke-linecap="round" stroke-linejoin="round"/>
<path d="M5.377 10.0006C6.5238 10.0006 7.45346 9.07092 7.45346 7.92412C7.45346 6.77732 6.5238 5.84766 5.377 5.84766C4.2302 5.84766 3.30054 6.77732 3.30054 7.92412C3.30054 9.07092 4.2302 10.0006 5.377 10.0006Z" stroke="#868686" stroke-width="1.5" stroke-miterlimit="10" stroke-linecap="round" stroke-linejoin="round"/>
<path d="M17.3368 2.98321C15.7446 1.96962 13.8993 1.42433 12.0119 1.40964C10.1245 1.39495 8.27105 1.91145 6.66324 2.90014M8.50478 3.4946L6.6554 2.94952L7.25263 0.923828L8.50478 3.4946Z" stroke="#868686" stroke-width="1.5" stroke-miterlimit="10" stroke-linecap="round" stroke-linejoin="round"/>
<path d="M6.6554 21.0192C8.24756 22.0327 10.0927 22.5779 11.98 22.5926C13.8673 22.6073 15.7207 22.0909 17.3285 21.1023M15.4869 20.5078L17.3368 21.0529L16.7396 23.0786L15.4869 20.5078Z" stroke="#868686" stroke-width="1.5" stroke-miterlimit="10" stroke-linecap="round" stroke-linejoin="round"/>
<path d="M1.26318 12.2366L9.47371 12V18.3158H1.26318V12.2366Z" fill="#868686"/>
<path d="M14.5264 12H22.7369V18.3158L14.5264 18V12Z" fill="#868686"/>
<ellipse cx="5.68417" cy="8.21114" rx="1.89474" ry="1.89474" fill="#868686"/>
<ellipse cx="18.3158" cy="8.21114" rx="1.89474" ry="1.89474" fill="#868686"/>
</svg>
