<svg width="29" height="29" viewBox="0 0 29 29" fill="none" xmlns="http://www.w3.org/2000/svg">
<path d="M22.9625 21.0236L23.383 21.4441L23.7251 20.9576C26.743 16.6651 26.466 10.5447 22.4607 6.53933L22.1071 6.89288L22.4607 6.53932C18.4576 2.53628 12.3378 2.25507 8.04233 5.27497L7.55581 5.61702L7.97635 6.03755L22.9625 21.0236ZM6.03749 7.9764L5.61696 7.55587L5.27491 8.04239C2.25704 12.3349 2.53399 18.4553 6.53933 22.4607C10.5424 26.4638 16.6622 26.7449 20.9577 23.725L21.4442 23.383L21.0237 22.9624L6.03749 7.9764ZM0.5 14.5C0.5 6.76799 6.76805 0.5 14.5 0.5C22.232 0.5 28.5 6.76805 28.5 14.5C28.5 22.232 22.232 28.5 14.5 28.5C6.76805 28.5 0.5 22.232 0.5 14.5Z" fill="white" stroke="#FF6B00"/>
</svg>
