<svg width="36" height="37" viewBox="0 0 36 37" fill="none" xmlns="http://www.w3.org/2000/svg">
<circle cx="18" cy="18.6953" r="18" fill="#00AB55"/>
<path d="M23.9199 12.9624C24.0052 12.8754 24.107 12.8062 24.2193 12.759C24.3317 12.7118 24.4524 12.6875 24.5742 12.6875C24.6961 12.6875 24.8168 12.7118 24.9291 12.759C25.0415 12.8062 25.1433 12.8754 25.2286 12.9624C25.5861 13.3237 25.5911 13.9074 25.2411 14.2749L17.8499 23.0124C17.7659 23.1046 17.6641 23.1786 17.5506 23.2301C17.4371 23.2815 17.3142 23.3093 17.1896 23.3116C17.065 23.3139 16.9412 23.2908 16.8258 23.2437C16.7105 23.1965 16.6059 23.1264 16.5186 23.0374L12.0211 18.4799C11.8476 18.303 11.7505 18.0652 11.7505 17.8174C11.7505 17.5697 11.8476 17.3318 12.0211 17.1549C12.1064 17.0679 12.2082 16.9987 12.3206 16.9515C12.433 16.9043 12.5536 16.88 12.6755 16.88C12.7974 16.88 12.918 16.9043 13.0304 16.9515C13.1427 16.9987 13.2445 17.0679 13.3299 17.1549L17.1449 21.0212L23.8949 12.9899C23.9026 12.9803 23.911 12.9711 23.9199 12.9624Z" fill="white"/>
</svg>
