<svg width="24" height="17" viewBox="0 0 24 17" fill="none" xmlns="http://www.w3.org/2000/svg">
<path d="M12 0C12.9283 0 13.8185 0.432327 14.4749 1.20187C15.1313 1.97142 15.5 3.01515 15.5 4.10345C15.5 5.19175 15.1313 6.23548 14.4749 7.00502C13.8185 7.77457 12.9283 8.2069 12 8.2069C11.0717 8.2069 10.1815 7.77457 9.52513 7.00502C8.86875 6.23548 8.5 5.19175 8.5 4.10345C8.5 3.01515 8.86875 1.97142 9.52513 1.20187C10.1815 0.432327 11.0717 0 12 0V0ZM5 2.93103C5.56 2.93103 6.08 3.1069 6.53 3.42345C6.38 5.1 6.8 6.76483 7.66 8.06621C7.16 9.19172 6.16 9.96552 5 9.96552C4.20435 9.96552 3.44129 9.59495 2.87868 8.93534C2.31607 8.27573 2 7.38111 2 6.44828C2 5.51545 2.31607 4.62082 2.87868 3.96121C3.44129 3.3016 4.20435 2.93103 5 2.93103V2.93103ZM19 2.93103C19.7956 2.93103 20.5587 3.3016 21.1213 3.96121C21.6839 4.62082 22 5.51545 22 6.44828C22 7.38111 21.6839 8.27573 21.1213 8.93534C20.5587 9.59495 19.7956 9.96552 19 9.96552C17.84 9.96552 16.84 9.19172 16.34 8.06621C17.2119 6.74656 17.6166 5.08382 17.47 3.42345C17.92 3.1069 18.44 2.93103 19 2.93103V2.93103ZM5.5 14.9483C5.5 12.5214 8.41 10.5517 12 10.5517C15.59 10.5517 18.5 12.5214 18.5 14.9483V17H5.5V14.9483ZM0 17V15.2414C0 13.6117 1.89 12.24 4.45 11.8414C3.86 12.6386 3.5 13.7407 3.5 14.9483V17H0ZM24 17H20.5V14.9483C20.5 13.7407 20.14 12.6386 19.55 11.8414C22.11 12.24 24 13.6117 24 15.2414V17Z" fill="#868686"/>
</svg>
