<svg width="22" height="18" viewBox="0 0 22 18" fill="none" xmlns="http://www.w3.org/2000/svg">
<path d="M22 17C22 17.5523 21.5523 18 21 18H10.9C10.3477 18 9.9 17.5523 9.9 17V11.125C9.9 10.5727 10.3477 10.125 10.9 10.125H21C21.5523 10.125 22 10.5727 22 11.125V17ZM7.7 17C7.7 17.5523 7.25228 18 6.7 18H1C0.447716 18 0 17.5523 0 17V11.125C0 10.5727 0.447715 10.125 1 10.125H6.7C7.25228 10.125 7.7 10.5727 7.7 11.125V17ZM22 6.875C22 7.42728 21.5523 7.875 21 7.875H1C0.447716 7.875 0 7.42728 0 6.875V1C0 0.447715 0.447715 0 1 0H21C21.5523 0 22 0.447715 22 1V6.875Z" fill="#868686"/>
</svg>
