<svg width="75" height="78" viewBox="0 0 75 78" fill="none" xmlns="http://www.w3.org/2000/svg">
<g filter="url(#filter0_d_4147_8879)">
<path d="M71.7187 65.8125H39.7812C38.522 65.8125 37.5 64.7205 37.5 63.375C37.5 62.0295 37.5 15.9705 37.5 14.625C37.5 13.2795 38.522 12.1875 39.7812 12.1875H71.7187C72.978 12.1875 74 13.2795 74 14.625V63.375C74 64.7205 72.978 65.8125 71.7187 65.8125Z" fill="#ECEFF1"/>
<path d="M48.9062 26.8125H39.7812C38.522 26.8125 37.5 25.7205 37.5 24.375C37.5 23.0295 38.522 21.9375 39.7812 21.9375H48.9062C50.1655 21.9375 51.1875 23.0295 51.1875 24.375C51.1875 25.7205 50.1655 26.8125 48.9062 26.8125Z" fill="#388E3C"/>
<path d="M48.9062 36.5625H39.7812C38.522 36.5625 37.5 35.4705 37.5 34.125C37.5 32.7795 38.522 31.6875 39.7812 31.6875H48.9062C50.1655 31.6875 51.1875 32.7795 51.1875 34.125C51.1875 35.4705 50.1655 36.5625 48.9062 36.5625Z" fill="#388E3C"/>
<path d="M48.9062 46.3125H39.7812C38.522 46.3125 37.5 45.2205 37.5 43.875C37.5 42.5295 38.522 41.4375 39.7812 41.4375H48.9062C50.1655 41.4375 51.1875 42.5295 51.1875 43.875C51.1875 45.2205 50.1655 46.3125 48.9062 46.3125Z" fill="#388E3C"/>
<path d="M48.9062 56.0625H39.7812C38.522 56.0625 37.5 54.9705 37.5 53.625C37.5 52.2795 38.522 51.1875 39.7812 51.1875H48.9062C50.1655 51.1875 51.1875 52.2795 51.1875 53.625C51.1875 54.9705 50.1655 56.0625 48.9062 56.0625Z" fill="#388E3C"/>
<path d="M62.5938 26.8125H58.0312C56.772 26.8125 55.75 25.7205 55.75 24.375C55.75 23.0295 56.772 21.9375 58.0312 21.9375H62.5938C63.853 21.9375 64.875 23.0295 64.875 24.375C64.875 25.7205 63.853 26.8125 62.5938 26.8125Z" fill="#388E3C"/>
<path d="M62.5938 36.5625H58.0312C56.772 36.5625 55.75 35.4705 55.75 34.125C55.75 32.7795 56.772 31.6875 58.0312 31.6875H62.5938C63.853 31.6875 64.875 32.7795 64.875 34.125C64.875 35.4705 63.853 36.5625 62.5938 36.5625Z" fill="#388E3C"/>
<path d="M62.5938 46.3125H58.0312C56.772 46.3125 55.75 45.2205 55.75 43.875C55.75 42.5295 56.772 41.4375 58.0312 41.4375H62.5938C63.853 41.4375 64.875 42.5295 64.875 43.875C64.875 45.2205 63.853 46.3125 62.5938 46.3125Z" fill="#388E3C"/>
<path d="M62.5938 56.0625H58.0312C56.772 56.0625 55.75 54.9705 55.75 53.625C55.75 52.2795 56.772 51.1875 58.0312 51.1875H62.5938C63.853 51.1875 64.875 52.2795 64.875 53.625C64.875 54.9705 63.853 56.0625 62.5938 56.0625Z" fill="#388E3C"/>
<path d="M41.2367 3.00141C40.7166 2.53828 40.0185 2.33841 39.3615 2.48466L2.8615 9.79716C1.78019 10.0117 1 11.0159 1 12.1908V65.8158C1 66.9858 1.78019 67.9949 2.8615 68.2094L39.3615 75.5219C39.4984 75.5512 39.6398 75.5658 39.7812 75.5658C40.3105 75.5658 40.8261 75.3708 41.2367 75.0052C41.7614 74.542 42.0625 73.8498 42.0625 73.1283V4.87829C42.0625 4.15191 41.7614 3.46453 41.2367 3.00141Z" fill="#2E7D32"/>
<path d="M32.3716 47.1477L25.1583 38.3385L32.4538 28.3155C33.2294 27.2528 33.0469 25.722 32.0568 24.8933C31.0668 24.0645 29.6341 24.2595 28.854 25.3174L22.0969 34.5994L16.4029 27.6477C15.568 26.6239 14.1262 26.5313 13.1863 27.4185C12.2373 28.3058 12.1415 29.8463 12.9719 30.8554L19.2453 38.5189L12.8852 47.2549C12.1096 48.3177 12.2921 49.8484 13.2822 50.6772C13.7019 51.0233 14.1992 51.189 14.6874 51.189C15.3672 51.189 16.0379 50.8673 16.4896 50.2482L22.3068 42.2532L28.9407 50.3505C29.3923 50.9063 30.022 51.189 30.6561 51.189C31.19 51.189 31.7238 50.9892 32.1572 50.5845C33.1062 49.6973 33.202 48.1568 32.3716 47.1477Z" fill="#FAFAFA"/>
</g>
<defs>
<filter id="filter0_d_4147_8879" x="0" y="0" width="75" height="80" filterUnits="userSpaceOnUse" color-interpolation-filters="sRGB">
<feFlood flood-opacity="0" result="BackgroundImageFix"/>
<feColorMatrix in="SourceAlpha" type="matrix" values="0 0 0 0 0 0 0 0 0 0 0 0 0 0 0 0 0 0 127 0" result="hardAlpha"/>
<feOffset dy="1"/>
<feGaussianBlur stdDeviation="0.5"/>
<feColorMatrix type="matrix" values="0 0 0 0 0 0 0 0 0 0 0 0 0 0 0 0 0 0 0.25 0"/>
<feBlend mode="normal" in2="BackgroundImageFix" result="effect1_dropShadow_4147_8879"/>
<feBlend mode="normal" in="SourceGraphic" in2="effect1_dropShadow_4147_8879" result="shape"/>
</filter>
</defs>
</svg>
