<svg width="105" height="91" viewBox="0 0 105 91" fill="none" xmlns="http://www.w3.org/2000/svg">
<path d="M49.7198 85.8166L61.6046 77.3652M49.7198 85.8166V47.7852V85.8166ZM49.7198 85.8166L37.835 77.3652L49.7198 85.8166Z" stroke="#868686" stroke-width="9" stroke-linecap="round" stroke-linejoin="round"/>
<path d="M18.9659 28.7715C14.462 29.9197 10.5269 32.6946 7.90002 36.5748C5.27313 40.455 4.13524 45.1736 4.70014 49.8438C5.26504 54.5141 7.49385 58.8146 10.9678 61.9374C14.4418 65.0603 18.9218 66.7905 23.5661 66.8029H28.3282" stroke="#868686" stroke-width="9" stroke-linecap="round" stroke-linejoin="round"/>
<path d="M71.1135 23.3908C69.4636 17.3979 65.391 12.2046 59.7215 8.86382C54.0519 5.52301 47.2096 4.28459 40.5815 5.39961C33.9534 6.51462 28.0355 9.89964 24.0274 14.8685C20.0194 19.8373 18.221 26.0182 18.997 32.1581C18.997 32.1581 19.7356 36.0635 21.2466 38.2775" stroke="#868686" stroke-width="9" stroke-linecap="round" stroke-linejoin="round"/>
<path d="M74.2893 66.801C77.8712 66.7989 81.4119 66.1571 84.6785 64.9178C87.945 63.6785 90.8633 61.8698 93.2413 59.6108C95.6192 57.3517 97.403 54.6936 98.475 51.8112C99.5471 48.9289 99.8832 45.8878 99.4612 42.888C99.0392 39.8882 97.8687 36.9978 96.0268 34.4071C94.1848 31.8163 91.7131 29.5839 88.7744 27.8568C85.8357 26.1297 82.4966 24.9471 78.9769 24.3868C75.4572 23.8265 71.8367 23.9012 68.3537 24.6061L61.6064 26.1549" stroke="#868686" stroke-width="9" stroke-linecap="round" stroke-linejoin="round"/>
</svg>
