<svg width="36" height="36" viewBox="0 0 36 36" fill="none" xmlns="http://www.w3.org/2000/svg">
<circle cx="18" cy="18" r="18" fill="#00AB55"/>
<path d="M22.9909 24.75C22.9909 24.5469 22.9168 24.3711 22.7684 24.2227C22.6201 24.0742 22.4444 24 22.2414 24C22.0384 24 21.8627 24.0742 21.7144 24.2227C21.566 24.3711 21.4918 24.5469 21.4918 24.75C21.4918 24.9531 21.566 25.1289 21.7144 25.2773C21.8627 25.4258 22.0384 25.5 22.2414 25.5C22.4444 25.5 22.6201 25.4258 22.7684 25.2773C22.9168 25.1289 22.9909 24.9531 22.9909 24.75ZM25.9891 24.75C25.9891 24.5469 25.915 24.3711 25.7666 24.2227C25.6183 24.0742 25.4426 24 25.2396 24C25.0366 24 24.8609 24.0742 24.7126 24.2227C24.5642 24.3711 24.49 24.5469 24.49 24.75C24.49 24.9531 24.5642 25.1289 24.7126 25.2773C24.8609 25.4258 25.0366 25.5 25.2396 25.5C25.4426 25.5 25.6183 25.4258 25.7666 25.2773C25.915 25.1289 25.9891 24.9531 25.9891 24.75ZM27.4882 22.125V25.875C27.4882 26.1875 27.3789 26.4531 27.1603 26.6719C26.9417 26.8906 26.6762 27 26.3639 27H9.12432C8.81201 27 8.54654 26.8906 8.32793 26.6719C8.10931 26.4531 8 26.1875 8 25.875V22.125C8 21.8125 8.10931 21.5469 8.32793 21.3281C8.54654 21.1094 8.81201 21 9.12432 21H14.5702L16.1513 22.5938C16.6042 23.0312 17.1351 23.25 17.7441 23.25C18.3531 23.25 18.884 23.0312 19.3369 22.5938L20.9297 21H26.3639C26.6762 21 26.9417 21.1094 27.1603 21.3281C27.3789 21.5469 27.4882 21.8125 27.4882 22.125ZM23.6819 15.457C23.8147 15.7773 23.76 16.0508 23.518 16.2773L18.2711 21.5273C18.1306 21.6758 17.9549 21.75 17.7441 21.75C17.5333 21.75 17.3576 21.6758 17.2171 21.5273L11.9703 16.2773C11.7282 16.0508 11.6736 15.7773 11.8063 15.457C11.939 15.1523 12.1694 15 12.4973 15H15.4955V9.75C15.4955 9.54688 15.5696 9.37109 15.718 9.22266C15.8663 9.07422 16.042 9 16.245 9H19.2432C19.4462 9 19.6219 9.07422 19.7702 9.22266C19.9186 9.37109 19.9928 9.54688 19.9928 9.75V15H22.9909C23.3189 15 23.5492 15.1523 23.6819 15.457Z" fill="white"/>
</svg>
