<svg width="20" height="19" viewBox="0 0 20 19" fill="none" xmlns="http://www.w3.org/2000/svg">
<path d="M6.66667 17.6429C6.66667 17.2829 6.75446 16.9377 6.91074 16.6832C7.06702 16.4287 7.27899 16.2857 7.5 16.2857H12.5C12.721 16.2857 12.933 16.4287 13.0893 16.6832C13.2455 16.9377 13.3333 17.2829 13.3333 17.6429C13.3333 18.0028 13.2455 18.348 13.0893 18.6025C12.933 18.857 12.721 19 12.5 19H7.5C7.27899 19 7.06702 18.857 6.91074 18.6025C6.75446 18.348 6.66667 18.0028 6.66667 17.6429ZM3.33333 9.5C3.33333 9.14006 3.42113 8.79487 3.57741 8.54035C3.73369 8.28584 3.94565 8.14286 4.16667 8.14286H15.8333C16.0543 8.14286 16.2663 8.28584 16.4226 8.54035C16.5789 8.79487 16.6667 9.14006 16.6667 9.5C16.6667 9.85994 16.5789 10.2051 16.4226 10.4596C16.2663 10.7142 16.0543 10.8571 15.8333 10.8571H4.16667C3.94565 10.8571 3.73369 10.7142 3.57741 10.4596C3.42113 10.2051 3.33333 9.85994 3.33333 9.5ZM0 1.35714C0 0.997206 0.0877975 0.652012 0.244078 0.397498C0.400358 0.142985 0.61232 0 0.833333 0H19.1667C19.3877 0 19.5996 0.142985 19.7559 0.397498C19.9122 0.652012 20 0.997206 20 1.35714C20 1.71708 19.9122 2.06227 19.7559 2.31679C19.5996 2.5713 19.3877 2.71429 19.1667 2.71429H0.833333C0.61232 2.71429 0.400358 2.5713 0.244078 2.31679C0.0877975 2.06227 0 1.71708 0 1.35714Z" fill="#868686"/>
</svg>
