<svg width="23" height="22" viewBox="0 0 23 22" fill="none" xmlns="http://www.w3.org/2000/svg">
<path d="M11.6875 16.5H1.375C1.01033 16.5 0.660591 16.3551 0.402728 16.0973C0.144866 15.8394 0 15.4897 0 15.125V1.375C0 1.01033 0.144866 0.660591 0.402728 0.402728C0.660591 0.144866 1.01033 0 1.375 0H20.625C20.9897 0 21.3394 0.144866 21.5973 0.402728C21.8551 0.660591 22 1.01033 22 1.375V8.50437C21.0841 7.33785 19.7518 6.5716 18.2829 6.36656C16.814 6.16151 15.3228 6.53362 14.1225 7.40474C12.9222 8.27585 12.1061 9.5782 11.8456 11.0383C11.5851 12.4984 11.9005 14.0026 12.7256 15.235L12.0863 16.0187L11.6875 16.5ZM3.4375 4.125V5.225H15.125V4.125H3.4375ZM3.4375 7.975H11V6.875H3.4375V7.975ZM3.4375 12.7875H10.3125V11.6875H3.4375V12.7875Z" fill="#868686"/>
<path d="M22.1648 16.6252L21.0574 15.2724L21.8828 12.0936L22.2828 12.0946C22.2828 12.0946 22.2828 12.0945 22.2828 12.0944C22.2847 11.3034 22.0903 10.5242 21.717 9.82682C21.3436 9.12936 20.8029 8.53549 20.1435 8.09849C19.484 7.66148 18.7264 7.39501 17.9386 7.32298C17.1507 7.25095 16.3574 7.3756 15.6296 7.68577C14.9018 7.99594 14.2624 8.48191 13.7687 9.10009C13.2751 9.71828 12.9426 10.4493 12.8011 11.2277C12.6596 12.0061 12.7135 12.8074 12.958 13.5597C13.1642 14.1939 13.5003 14.7766 13.9434 15.2713L12.8351 16.6252L12.708 16.7806L12.7565 16.9754L13.3753 19.4572L13.5678 20.2294L14.0726 19.6142L16.4259 16.7466C17.1323 16.9123 17.8676 16.9123 18.574 16.7466L20.9273 19.6142L21.4321 20.2294L21.6246 19.4572L22.2434 16.9754L22.2919 16.7806L22.1648 16.6252ZM14.904 11.8867C14.9324 11.4406 15.0753 11.0081 15.3204 10.6316C15.6022 10.1986 16.0065 9.85926 16.4817 9.65665C16.9569 9.45403 17.4816 9.39733 17.9892 9.49375C18.4967 9.59016 18.9641 9.83534 19.3319 10.1981C19.6997 10.5609 19.9513 11.0248 20.0548 11.531C20.1582 12.0371 20.1087 12.5626 19.9127 13.0406C19.7167 13.5186 19.3829 13.9274 18.9539 14.2152C18.5249 14.503 18.02 14.6567 17.5033 14.6567L17.5024 14.6567C16.8184 14.6583 16.1616 14.3894 15.6751 13.9085C15.1887 13.4276 14.9122 12.7739 14.9059 12.0899L14.904 11.8867Z" fill="#868686" stroke="#868686" stroke-width="0.8"/>
</svg>
