<svg width="23" height="21" viewBox="0 0 23 21" fill="none" xmlns="http://www.w3.org/2000/svg">
<path fill-rule="evenodd" clip-rule="evenodd" d="M1.99562 0C1.76444 0 1.55833 0.147951 1.47883 0.370443L0.067275 4.32955C0.0227057 4.45475 -3.25782e-06 4.5857 3.5055e-10 4.71749V6.29244C3.5055e-10 7.18297 0.703941 7.90579 1.5724 7.90579C2.44086 7.90579 3.14541 7.18297 3.14541 6.29244C3.14541 7.18354 3.84935 7.90579 4.71781 7.90579C5.58627 7.90579 6.29082 7.18297 6.29082 6.29244C6.29082 7.18354 6.99476 7.90579 7.86322 7.90579C8.73167 7.90579 9.435 7.1841 9.43623 6.29357C9.43623 7.1841 10.1402 7.90579 11.0086 7.90579C11.8771 7.90579 12.581 7.18297 12.581 6.29244C12.581 7.18354 13.2856 7.90579 14.154 7.90579C15.0225 7.90579 15.7258 7.1841 15.7264 6.29357C15.727 7.1841 16.431 7.90579 17.2994 7.90579C18.1679 7.90579 18.8718 7.18297 18.8718 6.29244C18.8718 7.18354 19.5758 7.90579 20.4449 7.90579C21.3133 7.90579 22.0173 7.18297 22.0173 6.29244V4.71749C22.0173 4.5857 21.9945 4.45475 21.95 4.32955L20.5384 0.371007C20.4589 0.147951 20.2528 0 20.0216 0H1.99562Z" fill="#868686"/>
<path fill-rule="evenodd" clip-rule="evenodd" d="M2.4461 8.59912V12.9868H0.917123C0.836021 12.9868 0.758241 13.0166 0.700894 13.0695C0.643546 13.1225 0.611328 13.1943 0.611328 13.2692V13.8339C0.611328 13.9088 0.643546 13.9806 0.700894 14.0335C0.758241 14.0865 0.836021 14.1162 0.917123 14.1162H21.0996C21.1807 14.1162 21.2585 14.0865 21.3158 14.0335C21.3732 13.9806 21.4054 13.9088 21.4054 13.8339V13.2692C21.4054 13.1943 21.3732 13.1225 21.3158 13.0695C21.2585 13.0166 21.1807 12.9868 21.0996 12.9868H19.5706V8.59912C19.3146 8.50492 19.0781 8.37062 18.8716 8.20214C18.713 8.33125 18.5368 8.44061 18.3474 8.52741V12.9868H3.66928V8.52741C3.47992 8.44061 3.3037 8.33125 3.14515 8.20214C2.93965 8.36873 2.7048 8.50425 2.4461 8.59912ZM18.3474 7.49401C18.3994 7.44601 18.4484 7.39462 18.4942 7.33984H18.3474V7.49401ZM19.2489 7.33984C19.3414 7.45045 19.4496 7.54904 19.5706 7.63292V7.33984H19.2489ZM2.4461 7.63292C2.56773 7.54969 2.67604 7.45103 2.7678 7.33984H2.4461V7.63292ZM3.5225 7.33984H3.66928V7.49401C3.61674 7.44565 3.56771 7.39415 3.5225 7.33984ZM1.52871 15.2456C1.44761 15.2456 1.36983 15.2754 1.31248 15.3283C1.25514 15.3813 1.22292 15.4531 1.22292 15.528V19.7632C1.22292 19.913 1.28735 20.0566 1.40205 20.1625C1.51674 20.2684 1.6723 20.3279 1.83451 20.3279H20.1822C20.3444 20.3279 20.5 20.2684 20.6147 20.1625C20.7294 20.0566 20.7938 19.913 20.7938 19.7632V15.528C20.7938 15.4531 20.7616 15.3813 20.7042 15.3283C20.6469 15.2754 20.5691 15.2456 20.488 15.2456H1.52871Z" fill="#868686"/>
<path d="M7.03314 11.2949H5.19837C5.02949 11.2949 4.89258 11.4213 4.89258 11.5773V12.7067C4.89258 12.8626 5.02949 12.989 5.19837 12.989H7.03314C7.20203 12.989 7.33894 12.8626 7.33894 12.7067V11.5773C7.33894 11.4213 7.20203 11.2949 7.03314 11.2949Z" fill="#868686"/>
<path d="M8.25629 11.8574H6.42152C6.25263 11.8574 6.11572 11.9838 6.11572 12.1398V12.7045C6.11572 12.8604 6.25263 12.9868 6.42152 12.9868H8.25629C8.42517 12.9868 8.56208 12.8604 8.56208 12.7045V12.1398C8.56208 11.9838 8.42517 11.8574 8.25629 11.8574Z" fill="#868686"/>
<path d="M10.0912 12.989C10.5979 12.989 11.0086 12.6098 11.0086 12.142C11.0086 11.6742 10.5979 11.2949 10.0912 11.2949C9.58456 11.2949 9.17383 11.6742 9.17383 12.142C9.17383 12.6098 9.58456 12.989 10.0912 12.989Z" fill="#868686"/>
</svg>
