<svg width="20" height="21" viewBox="0 0 20 21" fill="none" xmlns="http://www.w3.org/2000/svg">
    <path opacity="0.48"
        d="M18.1801 0C19.1842 0 19.9982 0.829554 19.9982 1.85286C19.9982 2.87617 19.1842 3.70572 18.1801 3.70572C17.8668 3.70572 17.5721 3.625 17.3148 3.48286L14.3149 6.99954C14.4484 7.25739 14.524 7.55122 14.524 7.86305C14.524 8.88635 13.7099 9.71591 12.7058 9.71591C11.7318 9.71591 10.9367 8.93547 10.8898 7.95478L8.70462 7.1882C8.37114 7.60032 7.86625 7.86305 7.30115 7.86305C6.97673 7.86305 6.67216 7.77646 6.40847 7.62472L3.55663 10.0632C3.61034 10.2381 3.63929 10.4242 3.63929 10.6172C3.63929 11.6405 2.82527 12.4701 1.82111 12.4701C0.816958 12.4701 0.00292969 11.6405 0.00292969 10.6172C0.00292969 9.59389 0.816958 8.76434 1.82111 8.76434C2.14928 8.76434 2.45714 8.85294 2.72292 9.00795L5.56882 6.57443C5.51307 6.39652 5.48297 6.20694 5.48297 6.01019C5.48297 4.98688 6.297 4.15733 7.30115 4.15733C8.26886 4.15733 9.06 4.92776 9.11615 5.89956L11.3138 6.67095C11.6474 6.26693 12.1472 6.01019 12.7058 6.01019C12.9171 6.01019 13.1199 6.04691 13.3086 6.11444L16.4517 2.4298C16.3934 2.24823 16.3619 2.0543 16.3619 1.85286C16.3619 0.829554 17.1759 0 18.1801 0Z"
        fill="#637381" />
    <path
        d="M19.0909 8.69922C19.593 8.69922 20 9.114 20 9.62565V20.4943C20 20.7733 19.778 20.9996 19.5041 20.9996H16.8595C16.5856 20.9996 16.3636 20.7733 16.3636 20.4943V9.62565C16.3636 9.114 16.7707 8.69922 17.2727 8.69922H19.0909ZM13.6364 15.1931C14.1384 15.1931 14.5455 15.6079 14.5455 16.1196V20.4943C14.5455 20.7733 14.3234 20.9996 14.0496 20.9996H11.405C11.1311 20.9996 10.9091 20.7733 10.9091 20.4943V16.1196C10.9091 15.6079 11.3161 15.1931 11.8182 15.1931H13.6364ZM8.18182 13.333C8.68389 13.333 9.09091 13.7478 9.09091 14.2594V20.4943C9.09091 20.7733 8.8689 20.9996 8.59504 20.9996H5.95041C5.67655 20.9996 5.45455 20.7733 5.45455 20.4943V14.2594C5.45455 13.7478 5.86156 13.333 6.36364 13.333H8.18182ZM2.72727 18.0967C3.22935 18.0967 3.63636 18.5115 3.63636 19.0231V20.4943C3.63636 20.7733 3.41436 20.9996 3.1405 20.9996H0.495868C0.222008 20.9996 0 20.7733 0 20.4943V19.0231C0 18.5115 0.407014 18.0967 0.909091 18.0967H2.72727Z"
        fill="#868686" />
</svg>