<svg width="20" height="20" viewBox="0 0 20 20" fill="none" xmlns="http://www.w3.org/2000/svg">
<path d="M11.9702 2C12.2348 2 12.4715 2.1647 12.5606 2.4113L13.1959 4.17258C13.4236 4.22927 13.6189 4.28597 13.7845 4.34537C13.9654 4.41017 14.1985 4.50827 14.4865 4.64237L15.966 3.85938C16.0868 3.7954 16.2251 3.7723 16.3601 3.79356C16.4951 3.81482 16.6196 3.87928 16.7148 3.97728L18.0162 5.32276C18.189 5.50186 18.2376 5.76376 18.1404 5.99235L17.4465 7.61863C17.5617 7.83013 17.6535 8.01103 17.7237 8.16223C17.7993 8.32693 17.8929 8.55372 18.0045 8.84622L19.6217 9.53921C19.8647 9.64271 20.015 9.88571 19.9988 10.1458L19.88 12.0133C19.8719 12.1346 19.8283 12.2509 19.7547 12.3477C19.6811 12.4445 19.5808 12.5175 19.466 12.5578L17.9343 13.1023C17.8902 13.3138 17.8443 13.4947 17.7957 13.6477C17.7173 13.8839 17.6278 14.1164 17.5275 14.3443L18.297 16.0452C18.3513 16.1647 18.3659 16.2985 18.3387 16.4269C18.3115 16.5554 18.2439 16.6717 18.1458 16.7589L16.6824 18.0657C16.5861 18.1514 16.4658 18.2056 16.3378 18.221C16.2097 18.2365 16.08 18.2124 15.966 18.1521L14.4577 17.3529C14.2217 17.4779 13.9783 17.5882 13.7287 17.6832L13.0699 17.9298L12.485 19.5498C12.4416 19.6684 12.3634 19.7712 12.2606 19.8446C12.1578 19.918 12.0353 19.9586 11.909 19.9611L10.199 19.9998C10.0694 20.0032 9.94192 19.9663 9.8341 19.8943C9.72628 19.8222 9.64343 19.7186 9.59697 19.5975L8.90759 17.7732C8.67238 17.6928 8.4395 17.6058 8.20922 17.5122C8.02087 17.4307 7.83536 17.3427 7.65304 17.2485L5.94309 17.9793C5.83043 18.0274 5.70621 18.0417 5.58557 18.0204C5.46494 17.9992 5.35308 17.9433 5.26362 17.8596L3.99826 16.6725C3.90405 16.5845 3.8399 16.4691 3.81486 16.3427C3.78983 16.2162 3.80519 16.0851 3.85877 15.9678L4.59404 14.3659C4.49625 14.1761 4.40559 13.9828 4.32225 13.7863C4.22496 13.5457 4.13493 13.3023 4.05226 13.0564L2.44132 12.5659C2.31037 12.5263 2.19616 12.4446 2.11642 12.3334C2.03668 12.2223 1.99587 12.0879 2.00033 11.9512L2.06333 10.2223C2.06781 10.1095 2.10305 10.0001 2.16523 9.90584C2.22741 9.81162 2.31417 9.73619 2.41612 9.68771L4.10626 8.87592C4.18456 8.58882 4.25295 8.36562 4.31325 8.20273C4.39815 7.98515 4.49244 7.77135 4.59584 7.56193L3.86327 6.01395C3.80767 5.8964 3.79079 5.76424 3.81505 5.63649C3.8393 5.50873 3.90345 5.39196 3.99826 5.30296L5.26182 4.10958C5.35039 4.02603 5.46122 3.96986 5.58097 3.94783C5.70072 3.9258 5.82428 3.93884 5.93679 3.98538L7.64494 4.69097C7.83393 4.56497 8.00492 4.46327 8.15972 4.38137C8.34421 4.28327 8.5908 4.18068 8.90129 4.06998L9.49527 2.4131C9.53918 2.29184 9.61945 2.18709 9.72512 2.11316C9.83078 2.03922 9.95669 1.99971 10.0857 2H11.9702ZM11.0216 8.31703C9.52137 8.31703 8.30551 9.51851 8.30551 11.0017C8.30551 12.4849 9.52137 13.6873 11.0216 13.6873C12.521 13.6873 13.7368 12.4849 13.7368 11.0017C13.7368 9.51851 12.5219 8.31703 11.0216 8.31703Z" fill="#868686"/>
</svg>
