<svg width="29" height="29" viewBox="0 0 29 29" fill="none" xmlns="http://www.w3.org/2000/svg">
<path d="M6.03256 7.8591L5.82853 7.65507L5.65564 7.88608C4.06393 10.0128 3.29214 12.6419 3.48177 15.2915C3.67139 17.9411 4.80973 20.4336 6.68807 22.3119C8.56641 24.1903 11.0589 25.3286 13.7085 25.5182C16.3581 25.7079 18.9872 24.9361 21.1139 23.3444L21.3449 23.1715L21.1409 22.9674L16.8582 18.6847C16.6238 18.4413 16.4942 18.1156 16.4971 17.7777C16.5001 17.439 16.6359 17.115 16.8754 16.8756C17.1149 16.6361 17.4388 16.5002 17.7775 16.4973C18.1155 16.4943 18.4411 16.624 18.6846 16.8584L22.9673 21.1396L23.1716 21.3438L23.3444 21.1123C24.9318 18.9851 25.7002 16.3574 25.5088 13.7102C25.3174 11.0629 24.1791 8.57303 22.3022 6.69633C20.4253 4.81963 17.9354 3.68158 15.2881 3.49046C12.6408 3.29935 10.0132 4.06796 7.88616 5.65562L7.65463 5.82844L7.85893 6.03274L12.1416 10.3154C12.376 10.5589 12.5057 10.8845 12.5027 11.2225C12.4998 11.5612 12.3639 11.8851 12.1244 12.1246C11.885 12.3641 11.561 12.4999 11.2223 12.5029C10.8844 12.5058 10.5587 12.3762 10.3153 12.1418L6.03256 7.8591ZM1.91198 9.28599C2.5967 7.63292 3.60032 6.1309 4.86552 4.86569C7.42072 2.3105 10.8863 0.875 14.4999 0.875C18.1135 0.875 21.5791 2.3105 24.1343 4.8657C26.6895 7.42089 28.125 10.8865 28.125 14.5001C28.125 18.1137 26.6895 21.5793 24.1343 24.1345C22.8691 25.3997 21.3671 26.4033 19.714 27.088C18.0609 27.7727 16.2892 28.1252 14.4999 28.1252C12.7106 28.1252 10.9389 27.7727 9.28582 27.088C7.63275 26.4033 6.13073 25.3997 4.86552 24.1345C3.60032 22.8693 2.5967 21.3673 1.91198 19.7142C1.22725 18.0611 0.874828 16.2894 0.874828 14.5001C0.874828 12.7108 1.22725 10.9391 1.91198 9.28599Z" fill="white" stroke="#FF6B00" stroke-width="0.5"/>
</svg>
