<svg width="16" height="14" viewBox="0 0 16 14" fill="none" xmlns="http://www.w3.org/2000/svg">
<path d="M0.5 8.89844C0.632608 8.89844 0.759785 8.95112 0.853553 9.04488C0.947322 9.13865 1 9.26583 1 9.39844V11.8984C1 12.1637 1.10536 12.418 1.29289 12.6055C1.48043 12.7931 1.73478 12.8984 2 12.8984H14C14.2652 12.8984 14.5196 12.7931 14.7071 12.6055C14.8946 12.418 15 12.1637 15 11.8984V9.39844C15 9.26583 15.0527 9.13865 15.1464 9.04488C15.2402 8.95112 15.3674 8.89844 15.5 8.89844C15.6326 8.89844 15.7598 8.95112 15.8536 9.04488C15.9473 9.13865 16 9.26583 16 9.39844V11.8984C16 12.4289 15.7893 12.9376 15.4142 13.3127C15.0391 13.6877 14.5304 13.8984 14 13.8984H2C1.46957 13.8984 0.960859 13.6877 0.585786 13.3127C0.210714 12.9376 0 12.4289 0 11.8984V9.39844C0 9.26583 0.0526784 9.13865 0.146447 9.04488C0.240215 8.95112 0.367392 8.89844 0.5 8.89844Z" fill="#868686"/>
<path d="M7.64663 0.146894C7.69308 0.100331 7.74825 0.0633877 7.809 0.0381812C7.86974 0.0129748 7.93486 0 8.00063 0C8.0664 0 8.13152 0.0129748 8.19227 0.0381812C8.25301 0.0633877 8.30819 0.100331 8.35463 0.146894L11.3546 3.14689C11.4485 3.24078 11.5013 3.36812 11.5013 3.50089C11.5013 3.63367 11.4485 3.76101 11.3546 3.85489C11.2607 3.94878 11.1334 4.00153 11.0006 4.00153C10.8679 4.00153 10.7405 3.94878 10.6466 3.85489L8.50063 1.70789V10.5009C8.50063 10.6335 8.44795 10.7607 8.35419 10.8544C8.26042 10.9482 8.13324 11.0009 8.00063 11.0009C7.86802 11.0009 7.74085 10.9482 7.64708 10.8544C7.55331 10.7607 7.50063 10.6335 7.50063 10.5009V1.70789L5.35463 3.85489C5.30814 3.90138 5.25295 3.93826 5.19222 3.96342C5.13148 3.98858 5.06638 4.00153 5.00063 4.00153C4.93489 4.00153 4.86979 3.98858 4.80905 3.96342C4.74831 3.93826 4.69312 3.90138 4.64663 3.85489C4.60014 3.80841 4.56327 3.75322 4.53811 3.69248C4.51295 3.63174 4.5 3.56664 4.5 3.50089C4.5 3.43515 4.51295 3.37005 4.53811 3.30931C4.56327 3.24857 4.60014 3.19338 4.64663 3.14689L7.64663 0.146894Z" fill="#868686"/>
</svg>
