<svg width="29" height="29" viewBox="0 0 29 29" fill="none" xmlns="http://www.w3.org/2000/svg">
<path d="M12.8928 15.7312C12.6269 15.7191 12.3611 15.707 12.0832 15.707C9.159 15.707 6.42817 16.5166 4.09609 17.9062C3.03275 18.5345 2.4165 19.7187 2.4165 20.9633V24.1654H13.6057C12.7522 22.9479 12.2366 21.526 12.1114 20.0445C11.9862 18.5629 12.2558 17.0747 12.8928 15.7312Z" fill="#868686"/>
<path d="M12.0833 14.4987C14.7527 14.4987 16.9167 12.3347 16.9167 9.66536C16.9167 6.99599 14.7527 4.83203 12.0833 4.83203C9.41396 4.83203 7.25 6.99599 7.25 9.66536C7.25 12.3347 9.41396 14.4987 12.0833 14.4987Z" fill="#868686"/>
<path d="M25.0731 19.3346C25.0731 19.0688 25.0368 18.8271 25.0006 18.5734L26.3781 17.353L25.1697 15.2626L23.4176 15.8546C23.031 15.5284 22.596 15.2746 22.1126 15.0934L21.7501 13.293H19.3335L18.971 15.0934C18.4876 15.2746 18.0526 15.5284 17.666 15.8546L15.9139 15.2626L14.7056 17.353L16.0831 18.5734C16.0468 18.8271 16.0106 19.0688 16.0106 19.3346C16.0106 19.6005 16.0468 19.8421 16.0831 20.0959L14.7056 21.3163L15.9139 23.4067L17.666 22.8146C18.0526 23.1409 18.4876 23.3946 18.971 23.5759L19.3335 25.3763H21.7501L22.1126 23.5759C22.596 23.3946 23.031 23.1409 23.4176 22.8146L25.1697 23.4067L26.3781 21.3163L25.0006 20.0959C25.0368 19.8421 25.0731 19.6005 25.0731 19.3346ZM20.5418 21.7513C19.2126 21.7513 18.1251 20.6638 18.1251 19.3346C18.1251 18.0055 19.2126 16.918 20.5418 16.918C21.871 16.918 22.9585 18.0055 22.9585 19.3346C22.9585 20.6638 21.871 21.7513 20.5418 21.7513Z" fill="#868686"/>
</svg>
