<svg width="36" height="36" viewBox="0 0 36 36" fill="none" xmlns="http://www.w3.org/2000/svg">
<circle cx="18" cy="18" r="18" fill="#FF6B00"/>
<path d="M31.2308 19.625C31.2308 19.5009 31.1851 19.3934 31.0938 19.3027C31.0024 19.212 30.8942 19.1667 30.7692 19.1667C30.6442 19.1667 30.5361 19.212 30.4447 19.3027C30.3534 19.3934 30.3077 19.5009 30.3077 19.625C30.3077 19.7491 30.3534 19.8566 30.4447 19.9473C30.5361 20.038 30.6442 20.0833 30.7692 20.0833C30.8942 20.0833 31.0024 20.038 31.0938 19.9473C31.1851 19.8566 31.2308 19.7491 31.2308 19.625ZM33.0769 19.625C33.0769 19.5009 33.0312 19.3934 32.9399 19.3027C32.8486 19.212 32.7404 19.1667 32.6154 19.1667C32.4904 19.1667 32.3822 19.212 32.2909 19.3027C32.1995 19.3934 32.1538 19.5009 32.1538 19.625C32.1538 19.7491 32.1995 19.8566 32.2909 19.9473C32.3822 20.038 32.4904 20.0833 32.6154 20.0833C32.7404 20.0833 32.8486 20.038 32.9399 19.9473C33.0312 19.8566 33.0769 19.7491 33.0769 19.625ZM34 18.0208V20.3125C34 20.5035 33.9327 20.6658 33.7981 20.7995C33.6635 20.9332 33.5 21 33.3077 21H22.6923C22.5 21 22.3365 20.9332 22.2019 20.7995C22.0673 20.6658 22 20.5035 22 20.3125V18.0208C22 17.8299 22.0673 17.6675 22.2019 17.5339C22.3365 17.4002 22.5 17.3333 22.6923 17.3333H26.0457L27.0192 18.3073C27.2981 18.5747 27.625 18.7083 28 18.7083C28.375 18.7083 28.7019 18.5747 28.9808 18.3073L29.9615 17.3333H33.3077C33.5 17.3333 33.6635 17.4002 33.7981 17.5339C33.9327 17.6675 34 17.8299 34 18.0208ZM31.6562 13.946C31.738 14.1417 31.7043 14.3088 31.5553 14.4473L28.3245 17.6556C28.238 17.7463 28.1298 17.7917 28 17.7917C27.8702 17.7917 27.762 17.7463 27.6755 17.6556L24.4447 14.4473C24.2957 14.3088 24.262 14.1417 24.3438 13.946C24.4255 13.7598 24.5673 13.6667 24.7692 13.6667H26.6154V10.4583C26.6154 10.3342 26.6611 10.2268 26.7524 10.1361C26.8438 10.0454 26.9519 10 27.0769 10H28.9231C29.0481 10 29.1562 10.0454 29.2476 10.1361C29.3389 10.2268 29.3846 10.3342 29.3846 10.4583V13.6667H31.2308C31.4327 13.6667 31.5745 13.7598 31.6562 13.946Z" fill="white"/>
<path d="M14.5 17C17.1828 17 19.3571 14.7613 19.3571 12C19.3571 9.23867 17.1828 7 14.5 7C11.8172 7 9.64286 9.23867 9.64286 12C9.64286 14.7613 11.8172 17 14.5 17ZM16.4239 18.875H12.5761C8.94502 18.875 6 21.9062 6 25.6445C6 26.3945 6.58893 27 7.31522 27H21.6855C22.4118 27 23 26.3945 23 25.6445C23 21.9062 20.0554 18.875 16.4239 18.875Z" fill="white"/>
</svg>
