<svg width="26" height="26" viewBox="0 0 26 26" fill="none" xmlns="http://www.w3.org/2000/svg">
<path fill-rule="evenodd" clip-rule="evenodd" d="M16.0076 1.89058C15.7355 1.32434 15.3088 0.846444 14.7768 0.511956C14.2448 0.177468 13.629 0 13.0005 0C12.3719 0 11.7562 0.177468 11.2242 0.511956C10.6921 0.846444 10.2655 1.32434 9.99343 1.89058L0.396351 20.7567C-0.751846 23.0091 0.699068 26 3.40224 26H22.5976C25.3019 26 26.7505 23.0103 25.6046 20.7567L16.0076 1.89058ZM13.0005 8.27422C13.3141 8.27422 13.6149 8.39873 13.8366 8.62034C14.0584 8.84196 14.183 9.14253 14.183 9.45594V15.3645C14.183 15.6779 14.0584 15.9785 13.8366 16.2001C13.6149 16.4217 13.3141 16.5463 13.0005 16.5463C12.6869 16.5463 12.3861 16.4217 12.1644 16.2001C11.9426 15.9785 11.818 15.6779 11.818 15.3645V9.45594C11.818 9.14253 11.9426 8.84196 12.1644 8.62034C12.3861 8.39873 12.6869 8.27422 13.0005 8.27422ZM13.0005 18.3188C13.3141 18.3188 13.6149 18.4433 13.8366 18.6649C14.0584 18.8866 14.183 19.1871 14.183 19.5005V20.0914C14.183 20.4048 14.0584 20.7054 13.8366 20.927C13.6149 21.1486 13.3141 21.2731 13.0005 21.2731C12.6869 21.2731 12.3861 21.1486 12.1644 20.927C11.9426 20.7054 11.818 20.4048 11.818 20.0914V19.5005C11.818 19.1871 11.9426 18.8866 12.1644 18.6649C12.3861 18.4433 12.6869 18.3188 13.0005 18.3188Z" fill="#FF6B00"/>
</svg>
