<svg width="29" height="29" viewBox="0 0 29 29" fill="none" xmlns="http://www.w3.org/2000/svg">
    <circle cx="14.5" cy="14.5" r="14.5" fill="#0C53B7" />
    <path fill-rule="evenodd" clip-rule="evenodd"
        d="M8.74991 6.83203C7.956 6.83203 7.31241 7.47562 7.31241 8.26953L6.83324 11.6237V12.582C6.83324 13.4335 7.20336 14.1985 7.79149 14.7249V17.3737H7.31322L7.31226 17.3737C7.04762 17.3737 6.83309 17.5882 6.83308 17.8529L6.83301 21.0473C6.83301 21.3438 6.9508 21.6282 7.16048 21.8379C7.37016 22.0476 7.65454 22.1654 7.95106 22.1654L21.0484 22.1654C21.345 22.1654 21.6293 22.0476 21.839 21.8379C22.0487 21.6282 22.1665 21.3438 22.1665 21.0473V17.8529C22.1665 17.5882 21.952 17.3737 21.6873 17.3737L21.6864 17.3737H21.2082V14.725C21.7964 14.1986 22.1666 13.4336 22.1666 12.582V11.6237L21.6874 8.26953C21.6874 7.47562 21.0438 6.83203 20.2499 6.83203H8.74991ZM20.2498 15.2935C19.9501 15.3994 19.6276 15.457 19.2916 15.457C18.2916 15.457 17.4108 14.9465 16.8957 14.1718C16.3807 14.9465 15.4999 15.457 14.4999 15.457C13.4999 15.457 12.6191 14.9465 12.1041 14.1718C11.589 14.9465 10.7082 15.457 9.70824 15.457C9.37218 15.457 9.04959 15.3994 8.74982 15.2934V17.3737H20.2498V15.2935ZM7.79158 12.582V11.6237H11.6249V12.582C11.6249 13.6406 10.7668 14.4987 9.70824 14.4987C8.6497 14.4987 7.79158 13.6406 7.79158 12.582ZM12.5832 12.582V11.6237H16.4166V12.582C16.4166 13.6406 15.5585 14.4987 14.4999 14.4987C13.4414 14.4987 12.5832 13.6406 12.5832 12.582ZM17.3749 12.582V11.6237H21.2082V12.582C21.2082 13.6406 20.3501 14.4987 19.2916 14.4987C18.233 14.4987 17.3749 13.6406 17.3749 12.582ZM8.27074 8.26953C8.27074 8.00489 8.48527 7.79036 8.74991 7.79036H20.2499C20.5145 7.79036 20.7291 8.00489 20.7291 8.26953L21.0166 10.6654H7.98324L8.27074 8.26953ZM7.79134 21.0473L7.79141 18.332H21.2082V21.0473C21.2082 21.0897 21.1913 21.1303 21.1614 21.1602C21.1314 21.1902 21.0908 21.207 21.0484 21.207L7.95106 21.207C7.9087 21.207 7.86808 21.1902 7.83812 21.1602C7.80817 21.1303 7.79134 21.0897 7.79134 21.0473Z"
        fill="white" />
    <path
        d="M7.31241 8.26953L7.60939 8.31196C7.6114 8.2979 7.61241 8.28373 7.61241 8.26953H7.31241ZM6.83324 11.6237L6.53626 11.5813C6.53425 11.5953 6.53324 11.6095 6.53324 11.6237H6.83324ZM7.79149 14.7249H8.09149C8.09149 14.6396 8.05515 14.5583 7.99157 14.5014L7.79149 14.7249ZM7.79149 17.3737V17.6737C7.95718 17.6737 8.09149 17.5394 8.09149 17.3737H7.79149ZM7.31322 17.3737L7.31292 17.6737H7.31322V17.3737ZM7.31226 17.3737L7.31256 17.0737H7.31226L7.31226 17.3737ZM6.83308 17.8529L7.13308 17.8529V17.8529L6.83308 17.8529ZM6.83301 21.0473L6.53301 21.0473V21.0473H6.83301ZM7.16048 21.8379L7.37261 21.6258L7.37261 21.6258L7.16048 21.8379ZM7.95106 22.1654V22.4654H7.95106L7.95106 22.1654ZM21.0484 22.1654V21.8654V22.1654ZM21.6873 17.3737V17.0737H21.687L21.6873 17.3737ZM21.6864 17.3737V17.6737H21.6867L21.6864 17.3737ZM21.2082 17.3737H20.9082C20.9082 17.5394 21.0425 17.6737 21.2082 17.6737V17.3737ZM21.2082 14.725L21.0081 14.5015C20.9445 14.5584 20.9082 14.6397 20.9082 14.725H21.2082ZM22.1666 11.6237H22.4666C22.4666 11.6095 22.4656 11.5953 22.4636 11.5813L22.1666 11.6237ZM21.6874 8.26953H21.3874C21.3874 8.28373 21.3884 8.2979 21.3904 8.31196L21.6874 8.26953ZM20.2498 15.2935H20.5498C20.5498 15.1961 20.5026 15.1048 20.423 15.0485C20.3435 14.9923 20.2417 14.9782 20.1499 15.0106L20.2498 15.2935ZM16.8957 14.1718L17.1456 14.0057C17.09 13.9221 16.9962 13.8718 16.8957 13.8718C16.7953 13.8718 16.7015 13.9221 16.6459 14.0057L16.8957 14.1718ZM12.1041 14.1718L12.3539 14.0057C12.2983 13.9221 12.2045 13.8718 12.1041 13.8718C12.0036 13.8718 11.9099 13.9221 11.8543 14.0057L12.1041 14.1718ZM8.74982 15.2934L8.84981 15.0106C8.75799 14.9781 8.65613 14.9922 8.57661 15.0485C8.4971 15.1047 8.44982 15.196 8.44982 15.2934H8.74982ZM8.74982 17.3737H8.44982C8.44982 17.5394 8.58414 17.6737 8.74982 17.6737V17.3737ZM20.2498 17.3737V17.6737C20.4155 17.6737 20.5498 17.5394 20.5498 17.3737H20.2498ZM7.79158 11.6237V11.3237C7.62589 11.3237 7.49158 11.458 7.49158 11.6237H7.79158ZM11.6249 11.6237H11.9249C11.9249 11.458 11.7906 11.3237 11.6249 11.3237V11.6237ZM12.5832 11.6237V11.3237C12.4176 11.3237 12.2832 11.458 12.2832 11.6237H12.5832ZM16.4166 11.6237H16.7166C16.7166 11.458 16.5823 11.3237 16.4166 11.3237V11.6237ZM17.3749 11.6237V11.3237C17.2092 11.3237 17.0749 11.458 17.0749 11.6237H17.3749ZM21.2082 11.6237H21.5082C21.5082 11.458 21.3739 11.3237 21.2082 11.3237V11.6237ZM8.27074 8.26953L8.5686 8.30527C8.57003 8.29341 8.57074 8.28148 8.57074 8.26953H8.27074ZM20.7291 8.26953H20.4291C20.4291 8.28148 20.4298 8.29341 20.4312 8.30527L20.7291 8.26953ZM21.0166 10.6654V10.9654C21.1024 10.9654 21.1841 10.9286 21.241 10.8645C21.2979 10.8003 21.3247 10.7148 21.3144 10.6296L21.0166 10.6654ZM7.98324 10.6654L7.68538 10.6296C7.67516 10.7148 7.70189 10.8003 7.75883 10.8645C7.81576 10.9286 7.89745 10.9654 7.98324 10.9654V10.6654ZM7.79141 18.332V18.032C7.62572 18.032 7.49141 18.1663 7.49141 18.332L7.79141 18.332ZM7.79134 21.0473L7.49134 21.0473V21.0473H7.79134ZM21.2082 18.332H21.5082C21.5082 18.1663 21.3738 18.032 21.2082 18.032V18.332ZM21.1614 21.1602L20.9493 20.9481L20.9492 20.9481L21.1614 21.1602ZM21.0484 21.207V20.907V21.207ZM7.95106 21.207V21.507H7.95106L7.95106 21.207ZM7.83812 21.1602L7.62599 21.3724L7.62599 21.3724L7.83812 21.1602ZM7.61241 8.26953C7.61241 7.64131 8.12168 7.13203 8.74991 7.13203V6.53203C7.79031 6.53203 7.01241 7.30994 7.01241 8.26953H7.61241ZM7.13023 11.6661L7.60939 8.31196L7.01542 8.2271L6.53626 11.5813L7.13023 11.6661ZM7.13324 12.582V11.6237H6.53324V12.582H7.13324ZM7.99157 14.5014C7.46434 14.0294 7.13324 13.3446 7.13324 12.582H6.53324C6.53324 13.5223 6.94239 14.3675 7.59141 14.9484L7.99157 14.5014ZM8.09149 17.3737V14.7249H7.49149V17.3737H8.09149ZM7.31322 17.6737H7.79149V17.0737H7.31322V17.6737ZM7.31196 17.6737L7.31292 17.6737L7.31352 17.0737L7.31256 17.0737L7.31196 17.6737ZM7.13308 17.8529C7.13309 17.7539 7.2133 17.6737 7.31225 17.6737L7.31226 17.0737C6.88194 17.0737 6.53309 17.4225 6.53308 17.8529L7.13308 17.8529ZM7.13301 21.0473L7.13308 17.8529L6.53308 17.8528L6.53301 21.0473L7.13301 21.0473ZM7.37261 21.6258C7.2192 21.4723 7.13301 21.2643 7.13301 21.0473H6.53301C6.53301 21.4234 6.68241 21.7841 6.94835 22.05L7.37261 21.6258ZM7.95106 21.8654C7.7341 21.8654 7.52603 21.7792 7.37261 21.6258L6.94835 22.05C7.21428 22.316 7.57497 22.4654 7.95106 22.4654V21.8654ZM21.0484 21.8654L7.95106 21.8654L7.95106 22.4654L21.0484 22.4654V21.8654ZM21.6269 21.6258C21.4735 21.7792 21.2654 21.8654 21.0484 21.8654V22.4654C21.4245 22.4654 21.7852 22.316 22.0512 22.05L21.6269 21.6258ZM21.8665 21.0473C21.8665 21.2643 21.7803 21.4723 21.6269 21.6258L22.0512 22.05C22.3171 21.7841 22.4665 21.4234 22.4665 21.0473H21.8665ZM21.8665 17.8529V21.0473H22.4665V17.8529H21.8665ZM21.6873 17.6737C21.7863 17.6737 21.8665 17.7539 21.8665 17.8529H22.4665C22.4665 17.4225 22.1177 17.0737 21.6873 17.0737V17.6737ZM21.6867 17.6737L21.6876 17.6737L21.687 17.0737L21.6861 17.0737L21.6867 17.6737ZM21.2082 17.6737H21.6864V17.0737H21.2082V17.6737ZM20.9082 14.725V17.3737H21.5082V14.725H20.9082ZM21.8666 12.582C21.8666 13.3447 21.5354 14.0296 21.0081 14.5015L21.4082 14.9486C22.0574 14.3677 22.4666 13.5224 22.4666 12.582H21.8666ZM21.8666 11.6237V12.582H22.4666V11.6237H21.8666ZM21.3904 8.31196L21.8696 11.6661L22.4636 11.5813L21.9844 8.2271L21.3904 8.31196ZM20.2499 7.13203C20.8781 7.13203 21.3874 7.64131 21.3874 8.26953H21.9874C21.9874 7.30994 21.2095 6.53203 20.2499 6.53203V7.13203ZM8.74991 7.13203H20.2499V6.53203H8.74991V7.13203ZM20.1499 15.0106C19.8818 15.1054 19.593 15.157 19.2916 15.157V15.757C19.6621 15.757 20.0184 15.6934 20.3498 15.5763L20.1499 15.0106ZM19.2916 15.157C18.3962 15.157 17.6074 14.7003 17.1456 14.0057L16.6459 14.3379C17.2142 15.1927 18.1869 15.757 19.2916 15.757V15.157ZM16.6459 14.0057C16.1841 14.7003 15.3953 15.157 14.4999 15.157V15.757C15.6046 15.757 16.5773 15.1927 17.1456 14.3379L16.6459 14.0057ZM14.4999 15.157C13.6045 15.157 12.8157 14.7003 12.3539 14.0057L11.8543 14.3379C12.4226 15.1927 13.3953 15.757 14.4999 15.757V15.157ZM11.8543 14.0057C11.3924 14.7003 10.6036 15.157 9.70824 15.157V15.757C10.8129 15.757 11.7856 15.1927 12.3539 14.3379L11.8543 14.0057ZM9.70824 15.157C9.40672 15.157 9.11791 15.1053 8.84981 15.0106L8.64984 15.5763C8.98128 15.6934 9.33765 15.757 9.70824 15.757V15.157ZM8.44982 15.2934V17.3737H9.04982V15.2934H8.44982ZM8.74982 17.6737H20.2498V17.0737H8.74982V17.6737ZM20.5498 17.3737V15.2935H19.9498V17.3737H20.5498ZM7.49158 11.6237V12.582H8.09158V11.6237H7.49158ZM11.6249 11.3237H7.79158V11.9237H11.6249V11.3237ZM11.9249 12.582V11.6237H11.3249V12.582H11.9249ZM9.70824 14.7987C10.9325 14.7987 11.9249 13.8063 11.9249 12.582H11.3249C11.3249 13.4749 10.6011 14.1987 9.70824 14.1987V14.7987ZM7.49158 12.582C7.49158 13.8063 8.48401 14.7987 9.70824 14.7987V14.1987C8.81538 14.1987 8.09158 13.4749 8.09158 12.582H7.49158ZM12.2832 11.6237V12.582H12.8832V11.6237H12.2832ZM16.4166 11.3237H12.5832V11.9237H16.4166V11.3237ZM16.7166 12.582V11.6237H16.1166V12.582H16.7166ZM14.4999 14.7987C15.7241 14.7987 16.7166 13.8063 16.7166 12.582H16.1166C16.1166 13.4749 15.3928 14.1987 14.4999 14.1987V14.7987ZM12.2832 12.582C12.2832 13.8063 13.2757 14.7987 14.4999 14.7987V14.1987C13.607 14.1987 12.8832 13.4749 12.8832 12.582H12.2832ZM17.0749 11.6237V12.582H17.6749V11.6237H17.0749ZM21.2082 11.3237H17.3749V11.9237H21.2082V11.3237ZM21.5082 12.582V11.6237H20.9082V12.582H21.5082ZM19.2916 14.7987C20.5158 14.7987 21.5082 13.8063 21.5082 12.582H20.9082C20.9082 13.4749 20.1844 14.1987 19.2916 14.1987V14.7987ZM17.0749 12.582C17.0749 13.8063 18.0673 14.7987 19.2916 14.7987V14.1987C18.3987 14.1987 17.6749 13.4749 17.6749 12.582H17.0749ZM8.74991 7.49036C8.31959 7.49036 7.97074 7.83921 7.97074 8.26953H8.57074C8.57074 8.17058 8.65096 8.09036 8.74991 8.09036V7.49036ZM20.2499 7.49036H8.74991V8.09036H20.2499V7.49036ZM21.0291 8.26953C21.0291 7.83921 20.6802 7.49036 20.2499 7.49036V8.09036C20.3489 8.09036 20.4291 8.17058 20.4291 8.26953H21.0291ZM21.3144 10.6296L21.0269 8.23379L20.4312 8.30527L20.7187 10.7011L21.3144 10.6296ZM7.98324 10.9654H21.0166V10.3654H7.98324V10.9654ZM7.97288 8.23379L7.68538 10.6296L8.28111 10.7011L8.5686 8.30527L7.97288 8.23379ZM7.49141 18.332L7.49134 21.0473L8.09134 21.0473L8.09141 18.332L7.49141 18.332ZM21.2082 18.032H7.79141V18.632H21.2082V18.032ZM21.5082 21.0473V18.332H20.9082V21.0473H21.5082ZM21.3735 21.3724C21.4597 21.2862 21.5082 21.1692 21.5082 21.0473H20.9082C20.9082 21.0101 20.9229 20.9744 20.9493 20.9481L21.3735 21.3724ZM21.0484 21.507C21.1704 21.507 21.2873 21.4586 21.3735 21.3724L20.9492 20.9481C20.9756 20.9218 21.0112 20.907 21.0484 20.907V21.507ZM7.95106 21.507L21.0484 21.507V20.907L7.95106 20.907L7.95106 21.507ZM7.62599 21.3724C7.71221 21.4586 7.82913 21.507 7.95106 21.507V20.907C7.98827 20.907 8.02395 20.9218 8.05025 20.9481L7.62599 21.3724ZM7.49134 21.0473C7.49134 21.1692 7.53978 21.2862 7.62599 21.3724L8.05026 20.9481C8.07656 20.9744 8.09134 21.0101 8.09134 21.0473H7.49134Z"
        fill="white" />
</svg>