<svg width="29" height="29" viewBox="0 0 29 29" fill="none" xmlns="http://www.w3.org/2000/svg">
    <circle cx="14.5" cy="14.5" r="14.5" fill="#929191" />
    <path fill-rule="evenodd" clip-rule="evenodd"
        d="M16.7993 7.57768C16.5926 6.8062 15.6095 6.57643 15.0822 7.17637L11.1385 11.6638C11.0734 11.7379 10.9877 11.7911 10.8924 11.8167L7.32113 12.7736C6.52093 12.988 6.04606 13.8105 6.26047 14.6107L6.77811 16.5426C6.99252 17.3428 7.81502 17.8176 8.61522 17.6032L9.09819 17.4738L10.0041 20.8546C10.2185 21.6548 11.041 22.1296 11.8412 21.9152C12.6414 21.7008 13.1162 20.8783 12.9018 20.0781L11.996 16.6974L12.1865 16.6463C12.2818 16.6208 12.3826 16.624 12.4761 16.6556L18.1351 18.57C18.8917 18.826 19.6282 18.1354 19.4215 17.3639L16.7993 7.57768ZM11.8897 12.3239L15.8334 7.8365L18.4556 17.6228L12.7965 15.7084C12.516 15.6135 12.2137 15.6037 11.9276 15.6804L10.7712 15.9902L11.9359 20.3369C12.0074 20.6037 11.8491 20.8778 11.5824 20.9493C11.3156 21.0208 11.0415 20.8625 10.97 20.5957L9.80529 16.2491L8.3564 16.6373C8.08967 16.7088 7.8155 16.5505 7.74403 16.2837L7.22639 14.3519C7.15492 14.0852 7.31321 13.811 7.57995 13.7395L11.1512 12.7826C11.4372 12.706 11.6942 12.5464 11.8897 12.3239ZM21.0113 7.90333C21.1494 7.66418 21.0674 7.35839 20.8283 7.22032C20.5892 7.08224 20.2834 7.16418 20.1453 7.40333L19.4382 8.62807C19.3001 8.86722 19.382 9.17301 19.6212 9.31109C19.8603 9.44916 20.1661 9.36722 20.3042 9.12807L21.0113 7.90333ZM21.1306 11.6464C20.8639 11.7179 20.7056 11.9921 20.7771 12.2588C20.8485 12.5255 21.1227 12.6838 21.3894 12.6124L22.8383 12.2241C23.1051 12.1527 23.2633 11.8785 23.1919 11.6118C23.1204 11.345 22.8462 11.1867 22.5795 11.2582L21.1306 11.6464ZM21.2499 15.3896C21.1118 15.6287 21.1938 15.9345 21.4329 16.0726L22.6577 16.7797C22.8968 16.9177 23.2026 16.8358 23.3407 16.5967C23.4788 16.3575 23.3968 16.0517 23.1577 15.9136L21.9329 15.2065C21.6938 15.0685 21.388 15.1504 21.2499 15.3896Z"
        fill="#E8E8E8" />
    <path
        d="M15.0822 7.17637L15.4578 7.50643V7.50643L15.0822 7.17637ZM16.7993 7.57768L17.2822 7.44827V7.44827L16.7993 7.57768ZM11.1385 11.6638L11.5141 11.9939L11.5141 11.9939L11.1385 11.6638ZM10.8924 11.8167L10.763 11.3337L10.763 11.3337L10.8924 11.8167ZM7.32113 12.7736L7.45054 13.2566L7.32113 12.7736ZM6.26047 14.6107L6.74343 14.4813L6.26047 14.6107ZM6.77811 16.5426L7.26107 16.4132L6.77811 16.5426ZM8.61522 17.6032L8.74463 18.0862H8.74463L8.61522 17.6032ZM9.09819 17.4738L9.58115 17.3444C9.54683 17.2163 9.46303 17.1071 9.34819 17.0408C9.23334 16.9745 9.09687 16.9565 8.96878 16.9909L9.09819 17.4738ZM10.0041 20.8546L9.52109 20.984L10.0041 20.8546ZM12.9018 20.0781L12.4189 20.2075L12.9018 20.0781ZM11.996 16.6974L11.8666 16.2144C11.5998 16.2859 11.4415 16.56 11.513 16.8268L11.996 16.6974ZM12.1865 16.6463L12.3159 17.1293H12.3159L12.1865 16.6463ZM12.4761 16.6556L12.6363 16.182H12.6363L12.4761 16.6556ZM18.1351 18.57L17.9749 19.0437H17.9749L18.1351 18.57ZM19.4215 17.3639L19.9045 17.2345V17.2345L19.4215 17.3639ZM15.8334 7.8365L16.3163 7.70709C16.2686 7.52897 16.1267 7.39158 15.9472 7.34962C15.7676 7.30765 15.5795 7.36792 15.4578 7.50643L15.8334 7.8365ZM11.8897 12.3239L12.2653 12.654L11.8897 12.3239ZM18.4556 17.6228L18.2954 18.0964C18.47 18.1555 18.663 18.1136 18.7976 17.9875C18.9321 17.8614 18.9863 17.6715 18.9385 17.4934L18.4556 17.6228ZM12.7965 15.7084L12.9568 15.2347H12.9568L12.7965 15.7084ZM11.9276 15.6804L11.7982 15.1974L11.9276 15.6804ZM10.7712 15.9902L10.6418 15.5073C10.5137 15.5416 10.4045 15.6254 10.3382 15.7402C10.2719 15.8551 10.2539 15.9916 10.2883 16.1197L10.7712 15.9902ZM11.9359 20.3369L11.4529 20.4663L11.9359 20.3369ZM11.5824 20.9493L11.4529 20.4663L11.4529 20.4663L11.5824 20.9493ZM10.97 20.5957L10.487 20.7251L10.97 20.5957ZM9.80529 16.2491L10.2883 16.1197C10.2168 15.8529 9.94262 15.6946 9.67588 15.7661L9.80529 16.2491ZM8.3564 16.6373L8.22699 16.1543H8.22699L8.3564 16.6373ZM7.74403 16.2837L8.22699 16.1543V16.1543L7.74403 16.2837ZM7.22639 14.3519L6.74343 14.4813L7.22639 14.3519ZM7.57995 13.7395L7.45054 13.2566H7.45054L7.57995 13.7395ZM11.1512 12.7826L11.0218 12.2996L11.0218 12.2996L11.1512 12.7826ZM20.8283 7.22032L20.5783 7.65333L20.8283 7.22032ZM21.0113 7.90333L21.4443 8.15333L21.0113 7.90333ZM20.1453 7.40333L20.5783 7.65333V7.65333L20.1453 7.40333ZM19.4382 8.62807L19.0052 8.37807V8.37807L19.4382 8.62807ZM19.6212 9.31109L19.3712 9.7441L19.3712 9.7441L19.6212 9.31109ZM20.3042 9.12807L19.8712 8.87807L20.3042 9.12807ZM20.7771 12.2588L20.2941 12.3882L20.2941 12.3882L20.7771 12.2588ZM21.1306 11.6464L21.26 12.1294H21.26L21.1306 11.6464ZM21.3894 12.6124L21.5188 13.0953H21.5188L21.3894 12.6124ZM22.8383 12.2241L22.9677 12.7071L22.8383 12.2241ZM23.1919 11.6118L23.6748 11.4824L23.6748 11.4824L23.1919 11.6118ZM22.5795 11.2582L22.4501 10.7752L22.5795 11.2582ZM21.4329 16.0726L21.1829 16.5056H21.1829L21.4329 16.0726ZM22.6577 16.7797L22.4077 17.2127L22.6577 16.7797ZM23.3407 16.5967L23.7737 16.8467L23.7737 16.8467L23.3407 16.5967ZM23.1577 15.9136L23.4077 15.4806V15.4806L23.1577 15.9136ZM21.9329 15.2065L22.1829 14.7735L21.9329 15.2065ZM15.4578 7.50643C15.7214 7.20646 16.213 7.32135 16.3163 7.70709L17.2822 7.44827C16.9722 6.29105 15.4975 5.94639 14.7066 6.8463L15.4578 7.50643ZM11.5141 11.9939L15.4578 7.50643L14.7066 6.8463L10.763 11.3337L11.5141 11.9939ZM11.0218 12.2996C11.2125 12.2485 11.3838 12.1421 11.5141 11.9939L10.763 11.3337L10.763 11.3337L11.0218 12.2996ZM7.45054 13.2566L11.0218 12.2996L10.763 11.3337L7.19172 12.2906L7.45054 13.2566ZM6.74343 14.4813C6.60049 13.9478 6.91707 13.3995 7.45054 13.2566L7.19172 12.2906C6.12479 12.5765 5.49162 13.6732 5.7775 14.7401L6.74343 14.4813ZM7.26107 16.4132L6.74343 14.4813L5.7775 14.7401L6.29514 16.672L7.26107 16.4132ZM8.48581 17.1203C7.95235 17.2632 7.40401 16.9466 7.26107 16.4132L6.29514 16.672C6.58103 17.7389 7.6777 18.3721 8.74463 18.0862L8.48581 17.1203ZM8.96878 16.9909L8.48581 17.1203L8.74463 18.0862L9.2276 17.9568L8.96878 16.9909ZM10.487 20.7251L9.58115 17.3444L8.61522 17.6032L9.52109 20.984L10.487 20.7251ZM11.7118 21.4323C11.1783 21.5752 10.63 21.2586 10.487 20.7251L9.52109 20.984C9.80697 22.0509 10.9036 22.6841 11.9706 22.3982L11.7118 21.4323ZM12.4189 20.2075C12.5618 20.741 12.2452 21.2893 11.7118 21.4323L11.9706 22.3982C13.0375 22.1123 13.6707 21.0156 13.3848 19.9487L12.4189 20.2075ZM11.513 16.8268L12.4189 20.2075L13.3848 19.9487L12.4789 16.5679L11.513 16.8268ZM12.0571 16.1634L11.8666 16.2144L12.1254 17.1803L12.3159 17.1293L12.0571 16.1634ZM12.6363 16.182C12.4493 16.1187 12.2478 16.1123 12.0571 16.1634L12.3159 17.1293H12.3159L12.6363 16.182ZM18.2954 18.0964L12.6363 16.182L12.3159 17.1293L17.9749 19.0437L18.2954 18.0964ZM18.9385 17.4934C19.0419 17.8791 18.6736 18.2244 18.2954 18.0964L17.9749 19.0437C19.1098 19.4276 20.2145 18.3918 19.9045 17.2345L18.9385 17.4934ZM16.3163 7.70709L18.9385 17.4934L19.9045 17.2345L17.2822 7.44827L16.3163 7.70709ZM15.4578 7.50643L11.5141 11.9939L12.2653 12.654L16.2089 8.16656L15.4578 7.50643ZM18.9385 17.4934L16.3163 7.70709L15.3504 7.96591L17.9726 17.7522L18.9385 17.4934ZM12.6363 16.182L18.2954 18.0964L18.6158 17.1491L12.9568 15.2347L12.6363 16.182ZM12.0571 16.1633C12.2478 16.1123 12.4493 16.1187 12.6363 16.182L12.9568 15.2347C12.5827 15.1082 12.1796 15.0952 11.7982 15.1974L12.0571 16.1633ZM10.9006 16.4732L12.0571 16.1633L11.7982 15.1974L10.6418 15.5073L10.9006 16.4732ZM12.4189 20.2075L11.2542 15.8608L10.2883 16.1197L11.4529 20.4663L12.4189 20.2075ZM11.7118 21.4323C12.2452 21.2893 12.5618 20.741 12.4189 20.2075L11.4529 20.4663L11.4529 20.4663L11.7118 21.4323ZM10.487 20.7251C10.63 21.2586 11.1783 21.5752 11.7118 21.4323L11.4529 20.4663H11.4529L10.487 20.7251ZM9.32233 16.3785L10.487 20.7251L11.4529 20.4663L10.2883 16.1197L9.32233 16.3785ZM8.48581 17.1203L9.9347 16.732L9.67588 15.7661L8.22699 16.1543L8.48581 17.1203ZM7.26107 16.4132C7.40401 16.9466 7.95235 17.2632 8.48581 17.1203L8.22699 16.1543H8.22699L7.26107 16.4132ZM6.74343 14.4813L7.26107 16.4132L8.22699 16.1543L7.70936 14.2225L6.74343 14.4813ZM7.45054 13.2566C6.91707 13.3995 6.60049 13.9478 6.74343 14.4813L7.70936 14.2225L7.70936 14.2225L7.45054 13.2566ZM11.0218 12.2996L7.45054 13.2566L7.70936 14.2225L11.2806 13.2656L11.0218 12.2996ZM11.5141 11.9939C11.3838 12.1421 11.2125 12.2485 11.0218 12.2996L11.2806 13.2656C11.662 13.1634 12.0046 12.9506 12.2653 12.654L11.5141 11.9939ZM20.5783 7.65333L20.5783 7.65333L21.4443 8.15333C21.7205 7.67504 21.5566 7.06345 21.0783 6.7873L20.5783 7.65333ZM20.5783 7.65333V7.65333L21.0783 6.7873C20.6 6.51116 19.9884 6.67504 19.7123 7.15333L20.5783 7.65333ZM19.8712 8.87807L20.5783 7.65333L19.7123 7.15333L19.0052 8.37807L19.8712 8.87807ZM19.8712 8.87807L19.8712 8.87807L19.0052 8.37807C18.729 8.85636 18.8929 9.46796 19.3712 9.7441L19.8712 8.87807ZM19.8712 8.87807L19.8712 8.87807L19.3712 9.7441C19.8495 10.0202 20.4611 9.85637 20.7372 9.37807L19.8712 8.87807ZM20.5783 7.65333L19.8712 8.87807L20.7372 9.37807L21.4443 8.15333L20.5783 7.65333ZM21.26 12.1294V12.1294L21.0012 11.1635C20.4677 11.3064 20.1512 11.8548 20.2941 12.3882L21.26 12.1294ZM21.26 12.1294H21.26L20.2941 12.3882C20.437 12.9217 20.9854 13.2383 21.5188 13.0953L21.26 12.1294ZM22.7089 11.7412L21.26 12.1294L21.5188 13.0953L22.9677 12.7071L22.7089 11.7412ZM22.7089 11.7412V11.7412L22.9677 12.7071C23.5012 12.5642 23.8178 12.0158 23.6748 11.4824L22.7089 11.7412ZM22.7089 11.7412L22.7089 11.7412L23.6748 11.4824C23.5319 10.9489 22.9836 10.6323 22.4501 10.7752L22.7089 11.7412ZM21.26 12.1294L22.7089 11.7412L22.4501 10.7752L21.0012 11.1635L21.26 12.1294ZM21.6829 15.6396V15.6396L20.8169 15.1396C20.5408 15.6178 20.7046 16.2294 21.1829 16.5056L21.6829 15.6396ZM22.9077 16.3467L21.6829 15.6396L21.1829 16.5056L22.4077 17.2127L22.9077 16.3467ZM22.9077 16.3467H22.9077L22.4077 17.2127C22.886 17.4888 23.4976 17.325 23.7737 16.8467L22.9077 16.3467ZM22.9077 16.3467V16.3467L23.7737 16.8467C24.0498 16.3684 23.886 15.7568 23.4077 15.4806L22.9077 16.3467ZM21.6829 15.6396L22.9077 16.3467L23.4077 15.4806L22.1829 14.7735L21.6829 15.6396ZM21.6829 15.6396L22.1829 14.7735C21.7046 14.4974 21.093 14.6613 20.8169 15.1396L21.6829 15.6396Z"
        fill="#E8E8E8" />
</svg>