<svg width="29" height="29" viewBox="0 0 29 29" fill="none" xmlns="http://www.w3.org/2000/svg">
<circle cx="14.5" cy="14.5" r="14.5" fill="#B78103"/>
<path d="M9.04599 9.72677L11.4715 12.1431C11.6683 11.89 11.8961 11.6623 12.1492 11.4655L9.72363 9.04912C9.55872 9.32821 9.32507 9.56185 9.04599 9.72677Z" fill="#FFF7CD"/>
<path d="M16.8504 11.4655C17.1035 11.6623 17.3313 11.89 17.5281 12.1431L19.9444 9.72452C19.6653 9.55961 19.4317 9.32596 19.2668 9.04688L16.8504 11.4655Z" fill="#FFF7CD"/>
<path d="M17.5281 16.8444C17.3313 17.0975 17.1035 17.3253 16.8504 17.522L19.3224 19.994C19.4873 19.7149 19.721 19.4813 20 19.3164L17.5281 16.8444Z" fill="#FFF7CD"/>
<path d="M12.1492 17.522C11.8961 17.3253 11.6683 17.0975 11.4715 16.8444L9.0459 19.2701C9.32498 19.435 9.55863 19.6687 9.72354 19.9478L12.1492 17.522Z" fill="#FFF7CD"/>
<path fill-rule="evenodd" clip-rule="evenodd" d="M14.5003 17.3724C16.0881 17.3724 17.3753 16.0852 17.3753 14.4974C17.3753 12.9096 16.0881 11.6224 14.5003 11.6224C12.9125 11.6224 11.6253 12.9096 11.6253 14.4974C11.6253 16.0852 12.9125 17.3724 14.5003 17.3724ZM14.5003 18.3307C16.6174 18.3307 18.3337 16.6145 18.3337 14.4974C18.3337 12.3803 16.6174 10.6641 14.5003 10.6641C12.3832 10.6641 10.667 12.3803 10.667 14.4974C10.667 16.6145 12.3832 18.3307 14.5003 18.3307Z" fill="black"/>
<circle cx="14.5" cy="14.5" r="4.5" fill="#FFF7CD"/>
<circle cx="21" cy="8" r="3" fill="#FFF7CD"/>
<circle cx="21" cy="21" r="3" fill="#FFF7CD"/>
<circle cx="8" cy="21" r="3" fill="#FFF7CD"/>
<circle cx="8" cy="8" r="3" fill="#FFF7CD"/>
</svg>
