<svg width="29" height="29" viewBox="0 0 29 29" fill="none" xmlns="http://www.w3.org/2000/svg">
    <circle cx="14.5" cy="14.5" r="14.5" fill="#ADADAD" />
    <path
        d="M6.58333 22C6.58333 22 5 22 5 20.4167C5 18.8333 6.58333 14.0833 14.5 14.0833C22.4167 14.0833 24 18.8333 24 20.4167C24 22 22.4167 22 22.4167 22H6.58333ZM14.5 12.5C15.7598 12.5 16.968 11.9996 17.8588 11.1088C18.7496 10.218 19.25 9.00978 19.25 7.75C19.25 6.49022 18.7496 5.28204 17.8588 4.39124C16.968 3.50045 15.7598 3 14.5 3C13.2402 3 12.032 3.50045 11.1412 4.39124C10.2504 5.28204 9.75 6.49022 9.75 7.75C9.75 9.00978 10.2504 10.218 11.1412 11.1088C12.032 11.9996 13.2402 12.5 14.5 12.5Z"
        fill="#FFF7CD" />
</svg>