<svg width="31" height="31" viewBox="0 0 31 31" fill="none" xmlns="http://www.w3.org/2000/svg">
    <path
        d="M15.5003 0.917969C7.45033 0.917969 0.916992 7.4513 0.916992 15.5013C0.916992 23.5513 7.45033 30.0846 15.5003 30.0846C23.5503 30.0846 30.0837 23.5513 30.0837 15.5013C30.0837 7.4513 23.5503 0.917969 15.5003 0.917969ZM9.66699 23.5221C8.70006 23.5221 7.77273 23.138 7.089 22.4543C6.40527 21.7706 6.02116 20.8432 6.02116 19.8763C6.02116 18.9094 6.40527 17.982 7.089 17.2983C7.77273 16.6146 8.70006 16.2305 9.66699 16.2305C10.6339 16.2305 11.5613 16.6146 12.245 17.2983C12.9287 17.982 13.3128 18.9094 13.3128 19.8763C13.3128 20.8432 12.9287 21.7706 12.245 22.4543C11.5613 23.138 10.6339 23.5221 9.66699 23.5221ZM11.8545 9.66797C11.8545 8.70103 12.2386 7.7737 12.9223 7.08998C13.6061 6.40625 14.5334 6.02214 15.5003 6.02214C16.4673 6.02214 17.3946 6.40625 18.0783 7.08998C18.762 7.7737 19.1462 8.70103 19.1462 9.66797C19.1462 10.6349 18.762 11.5622 18.0783 12.246C17.3946 12.9297 16.4673 13.3138 15.5003 13.3138C14.5334 13.3138 13.6061 12.9297 12.9223 12.246C12.2386 11.5622 11.8545 10.6349 11.8545 9.66797ZM21.3337 23.5221C20.3667 23.5221 19.4394 23.138 18.7557 22.4543C18.0719 21.7706 17.6878 20.8432 17.6878 19.8763C17.6878 18.9094 18.0719 17.982 18.7557 17.2983C19.4394 16.6146 20.3667 16.2305 21.3337 16.2305C22.3006 16.2305 23.2279 16.6146 23.9117 17.2983C24.5954 17.982 24.9795 18.9094 24.9795 19.8763C24.9795 20.8432 24.5954 21.7706 23.9117 22.4543C23.2279 23.138 22.3006 23.5221 21.3337 23.5221Z"
        fill="#0C53B7" />
    <path fill-rule="evenodd" clip-rule="evenodd"
        d="M15.5002 9.2487C12.0484 9.2487 9.25016 12.0469 9.25016 15.4987C9.25016 18.9505 12.0484 21.7487 15.5002 21.7487C18.9519 21.7487 21.7502 18.9505 21.7502 15.4987C21.7502 12.0469 18.9519 9.2487 15.5002 9.2487ZM8.2085 15.4987C8.2085 11.4716 11.4731 8.20703 15.5002 8.20703C19.5272 8.20703 22.7918 11.4716 22.7918 15.4987C22.7918 19.5258 19.5272 22.7904 15.5002 22.7904C11.4731 22.7904 8.2085 19.5258 8.2085 15.4987Z"
        fill="#B5DCF5" />
</svg>