<svg width="29" height="29" viewBox="0 0 29 29" fill="none" xmlns="http://www.w3.org/2000/svg">
    <circle cx="14.5" cy="14.5" r="14.5" fill="#E66245" />
    <path
        d="M23.4375 7.8125H6.5625C6.31395 7.81279 6.07566 7.91165 5.89991 8.08741C5.72415 8.26316 5.62529 8.50145 5.625 8.75V21.25C5.62529 21.4986 5.72415 21.7368 5.89991 21.9126C6.07566 22.0883 6.31395 22.1872 6.5625 22.1875H23.4375C23.6861 22.1872 23.9243 22.0883 24.1001 21.9126C24.2758 21.7368 24.3747 21.4986 24.375 21.25V8.75C24.3747 8.50145 24.2758 8.26316 24.1001 8.08741C23.9243 7.91165 23.6861 7.81279 23.4375 7.8125ZM23.125 9.0625V11.5625H6.875V9.0625H23.125ZM6.875 20.9375V14.0625H23.125V20.9375H6.875Z"
        fill="#FFF7CD" />
    <path d="M8.4375 17.1875H10.9375V18.4375H8.4375V17.1875ZM12.1875 17.1875H14.6875V18.4375H12.1875V17.1875Z"
        fill="#FFF7CD" />
</svg>